<svg xmlns="http://www.w3.org/2000/svg" width="200" height="200" fill="none" viewBox="0 0 200 200">
<!-- SVG created with Arrow, by QuiverAI (https://quiver.ai) -->
  <path d="m159.1 197.4c-3.48-9.4-11.33-17.25-15.52-21.21 20.73-10.55 34.16-21.31 45.59-38.62 4.58-6.75 4.51-9.71-0.32-11.37-1.06-0.37-1.01-0.89-0.16-1.89 3.93-4.53 4.21-10.4-0.97-11.53-5.01-1.09-8.98-5.9-12.02-12.02-2.83-5.8-6.95-12.12-9.83-16.19 5.97-3.94 15.9-10.89 15.9-17.98 0-8.65-8.62-15.34-19.16-18.9-3.53-10.36-7.04-19.24-14.47-19.24-8.96 0-21.47 9.23-28.06 15.32-2.03-0.04-4.06 0.02-6.09 0.19l-17.21-33.23c-2.06-3.77-4.88-4.69-12.86-4.76-13.87-0.12-33.67 8.76-35.05 17.69l1.85 37.48c-1.95 1.14-3.85 2.38-5.68 3.62-10.94-2.73-24.94-2.35-31.4 1.54-6.72 2.95-5.76 13.65-2.41 23.85-4.98 6.83-7.28 12.75-7.27 16.58-0.01 6.4 3.11 11 16.64 12.65l7.38 0.68c-0.64 7.39-0.28 12.03 0.2 19.87 0.47 7.45-2.24 13.73-4.95 17.1-2.95 2.85-2.36 6.55 5.65 10.03 1.35 0.59 1.25 0.95 0.1 2.07-2.23 2.19-1.66 4.83 2.23 7.31 11.13 7.16 25.46 10.84 40.57 12.67l1.93 0.18-3.6 8.11h88.99zm2.04-118.4c-6.26-7-12.52-12.66-24.24-19.86 6.77 0.52 12.36 0.61 15.28 0.99 0.99 5.59 0.2 11.06 2.77 13.89l6.19 4.98zm0.73-8.16 0.37-12.7 0.81 0.57c0.72 4.2 0.13 8.36-1.18 12.13z" fill="#420B08" stroke="#000" stroke-miterlimit="10" stroke-width=".75"/>
  <path d="m146.9 31.01c-8.77 0.7-19.15 9.2-22.82 11.83l15.83 1.12c2.34-1.78 4.28-3.04 6.17-2.89 3.21 0.26 4.65 4.07 6 6.15l7.01-0.31c-2.49-6.99-6.05-16.13-12.19-15.9z" fill="#A53D1B" stroke="#000" stroke-miterlimit="10" stroke-width=".75"/>
  <path d="m162.1 57.91c1.88 8 0.53 16.87-1.24 22.2l-13.71-12.37 3.89-8.23 11.06-1.6z" fill="#FEFFFE" stroke="#000" stroke-miterlimit="10" stroke-width=".75"/>
  <path d="m12.71 70.71c3.21-6.65 18.35-5.92 29.01-4.8l-2.41 2.31-14.83 7.48c-3.41 0.15-4.29 2.13-3.72 4.41l-1.67 7.02-6.87-0.51c-1.3-5.15-1.51-12 0.49-15.91z" fill="#380B07" stroke="#000" stroke-miterlimit="10" stroke-width=".75"/>
  <path d="m17.11 95.38c3 7.43 7.37 13.83 11.01 18.83l4.74-13.42c-3.89-2.08-6.65-7.68-8.74-14.08-1.11-2.68-5.34-1.8-5.91 0.51l-1.1 8.16z" fill="#A53D1B" stroke="#000" stroke-miterlimit="10" stroke-width=".75"/>
  <path d="m8.01 109.1c-0.1-8.86 17.11-22.36 28.24-28.06l7.12-0.9-12.94 38.72c-10.22-0.15-22.32-3.12-22.42-9.76z" fill="#333" stroke="#000" stroke-miterlimit="10" stroke-width=".75"/>
  <path d="m119.8 197.4c7.86-7.32 13.29-12.69 16.99-18.29l4.34-1.92c6.01 4.26 12.35 11.85 14.96 20.21h-36.29z" fill="#4E719F" stroke="#000" stroke-miterlimit="10" stroke-width=".75"/>
  <path d="m72.81 197.4 4.25-7.32 11.23-0.79 9.13 8.11h-24.61z" fill="#426699" stroke="#000" stroke-miterlimit="10" stroke-width=".75"/>
  <path d="m143.2 175.1c18.61-9.43 33.23-20.73 44.35-38.2 3.78-5.88 3.58-8.98-0.31-9.33-2.33-0.23-3.41-1.8-1.46-3.83 4.15-4.31 5.05-9.36 0.55-10-6.4-0.92-11.12-8.07-13.45-13.37-10.45-22.35-26.05-39-45.71-42.3l-8.98-12.97c-8.96-0.73-24.45 0.15-38.98 3.92l-26.74 11.73-8.16 4.97c-12.66 8.3-33.48 22.87-37.18 36.95-2.95 10.92 4.65 13.6 21.86 15.4-1.25 7.9-0.9 13.93-0.28 22.63 0.57 7.97-2.68 14.27-4.91 16.7-2.71 2.85-1.16 6.47 7.14 9.17 2.04 0.7 2.09 2-0.39 3.07-2.24 0.97-2.55 3 1.19 5.38 16.09 10.2 35.66 13.35 58.16 12.4l10.44-0.45 8.4 10.42h10.44c7.15-7.14 13.45-12.62 15.78-17.37 0.77-1.67 4.79-2.84 8.24-4.92z" fill="#FD7014" stroke="#000" stroke-miterlimit="10" stroke-width=".75"/>
  <path d="m185.6 126c-16.82 28.6-43.38 44.18-78.9 49.83-28.49 4.53-53.59 1.75-72.57-8.53l-3.82 2.95c9.3 8.6 32.3 16.9 69.64 15.15l13.95 11.95c6.92-6.3 15.18-13.65 20.28-20.84 20.73-9.51 38.98-21.61 53.59-41.41 3.31-4.53 4.71-8.4-2.17-9.1z" fill="#D3461C"/>
  <path d="m133.7 93.31c-16.52-0.3-21.5 13.95-20.93 22.4 0.63 9.35 7.34 20.25 20.41 20.25 10.72 0 20.3-10.35 20.3-20 0-9.35-8.11-22.43-19.78-22.65z" fill="#A53D1B"/>
  <path d="m70.04 104.7c-13.03 0-20.03 11.55-20.03 25.1 0 11.4 7.71 23.3 19.93 23.3 11.28 0 20.05-9.75 20.05-24.35 0-11.85-7.71-24.05-19.95-24.05z" fill="#A53D1B" stroke="#000" stroke-miterlimit="10" stroke-width=".75"/>
  <path d="m70.81 109.2c-9.02 0-15.37 8.95-15.37 18.45 0 9.35 6.77 19.5 16.38 19.5 9.02 0 14.19-9.25 14.19-18.25s-6.5-19.7-15.2-19.7z" fill="#FEFFFE"/>
  <path d="m73.91 114.8c-3 0-5.43 2.08-6.69 4.93 0.73-0.78 1.5-1.28 2.56-1.28 2.86 0 3.97 2.3 3.97 4.45 0 2.75-2.04 5.15-4.57 5.15-1.85 0-3.06-1.15-3.83-2.7-0.05 0.55-0.1 1.08-0.1 1.65 0 6.7 4.79 13.3 11.04 13.3 5.73 0 8.83-6.05 8.83-11.75 0-6.2-4.49-13.75-11.21-13.75z" fill="#491305"/>
  <path d="m149 100.1c10.88 0.6 20.94 11.8 20.94 26 0 10.9-9.25 21.6-17.2 21.3-6.92-0.25-9.78-6.75-9.63-12.35 8.11-3.9 11.06-12.15 10.64-19-0.3-5.15-2.91-12-4.75-15.95z" fill="#FEFFFE"/>
  <path d="m49.61 128.7c-6.4 4.3-8.58 11.6-7.89 20.2 1.07 11.3 10.21 22.75 23.24 22.75 8.11 0 10.87-7.05 10.45-10.75-0.36-2.95-1.09-4.82-2.34-6.85-10.76 0.55-21.25-7.95-23.46-25.35z" fill="#FEFFFE"/>
  <path d="m108 123.5c-14.61 0-25.15 14.15-25.15 27.55 0 11.9 9.82 19.45 22.43 19.45 13.62 0 30.33-10.9 30.33-23.75 0-12.7-13-23.25-27.61-23.25z" fill="#FEFFFE"/>
  <path d="m125.3 138c-1.06 0.45-1.2 2-1.68 3.15-3.51 4.75-10.48 5.8-14.97 2.45-0.77-0.7-1.64-4.4-0.57-5.7l-3.26 0.7c0.47 2.15 0.99 5.25 0 6.95-3.21 5.4-11.53 4.95-14.19 2.35-1.25-1.2-2.36 1-0.91 1.85 3 1.8 4.35 9.35 16.38 10.45 9.02 0.45 17.52-7.1 18.29-16.2 0.1-1.25 0.31-3.3 1.03-4.45 0.82-1.15 0.61-1.95-0.12-1.55z" fill="#491305" stroke="#491305" stroke-miterlimit="10" stroke-width="1.5"/>
  <path d="m106 128.3c-5.92 0-9.61 3.1-9.61 5.5 0 3.25 4.34 5.4 8.93 5.85 2.66 0.3 7.38-5.75 7.38-8.2 0-2.15-2.04-3.15-6.7-3.15z" fill="#491305"/>
  <path d="m104.2 130.7c-3.1 0-4.94 1.1-4.94 1.9 0 1.05 2.14 1.35 4.17 1.1 2.61-0.35 4.59-1.35 4.59-2.15 0-0.7-1.15-0.9-3.82-0.85z" fill="#7A3426"/>
  <path d="m134.7 104.2c-7.44 1.7-14.61 10.5-15.57 15.4-0.25 1.25 0.85 1 1.47 0.4 6.4-5.6 15.22-7.2 22.19-4.35 1.5 0.65 1.81-1.05 0.31-1.8-4.97-2.6-14.04-1.05-19.42 1.45 3.11-5.35 7.04-8.3 11.23-9.4 1.55-0.45 1.34-2.1-0.21-1.7z" fill="#290805" stroke="#290805" stroke-miterlimit="10" stroke-width="1.5"/>
  <path d="m119.2 78.01c-6.43 1.6-11.15 8.1-10.73 12.3 0.41 4.65 4.66 4.8 7.38 3.5 5.22-2.5 10.6-7.75 10.39-11.6-0.16-3.15-2.49-5.3-7.04-4.2z" fill="#FEFFFE"/>
  <path d="m67.12 85.21c-6.72 1.55-10.51 6.85-10.51 9.55 0 3.25 2.71 4.85 6.4 4.4 5.48-0.7 13.54-4.95 13.54-9.25 0-3.55-2.9-6.05-9.43-4.7z" fill="#FEFFFE"/>
  <path d="m78.73 130c-1.25 0.7-1.2 2.7-0.47 3.95 0.83 1.45 3.06 0.75 3.88-0.5 0.57-0.9-0.4-3.25-1.75-3.85-0.67-0.3-1.14 0-1.66 0.4z" fill="#B77878" opacity=".4"/>
  <path d="m134 197.1c4.83-4.85 9.71-10.65 11.45-14.05l-2.4-2.55c-3.89 6.4-9.05 12.3-13.64 16.6h4.59z" fill="#23496E"/>
  <path d="m92.01 190.1 4.1 6.9-7.03-6.9h2.93z" fill="#23496E"/>
  <path d="m48.75 23.91 2.01 38 2.66-0.9c15.59-8.3 34.76-15.3 61.13-16.7l-17.73-34.1c-2.06-3.77-6.1-4.2-13.53-4.21-13.87-0.12-33.68 8.98-34.54 17.91z" fill="#333" stroke="#000" stroke-miterlimit="10" stroke-width="3.5"/>
  <path d="m58.36 24.06 1.45 21.2" stroke="#666" stroke-linecap="round" stroke-linejoin="round" stroke-width="6"/>
  <path d="m117 43.66c-24.86 0.6-50.89 6.55-66.25 15.9-17.75 9.2-45.55 27.55-46.71 46.15-0.83 10 7.86 13.2 23.86 13.9l0.21-3.4c-8.01-0.5-20.2-3.3-19.33-9.2 1.45-10.25 40.7-34.9 72.53-43.6 16.31-4.75 28.74-6.1 42.69-6.25 15.83-0.15 42.2 1.15 51.11 3.85 3.51 1.15 4.86 3.7 4.7 5.6-0.52 6.3-7.69 11.85-15.69 17.1l-1.35-2.7c5.38-3.9 16.26-11.1 15.43-15.85-1.35-8.1-15.57-10.85-26-13-8.92-2-19.37-8.4-35.2-8.5z" fill="url(#paint0_linear_401_605)" stroke="#000" stroke-miterlimit="10" stroke-width="3.5"/>
  <path d="m37.12 74.21c9.02-6.5 19.79-11.35 30.52-15.25" opacity=".2" stroke="#FEFFFE" stroke-linecap="round" stroke-linejoin="round" stroke-width="3.5"/>
  <path d="m37.07 94.11c13.36-12.05 39.94-27 78.06-29.4 9.55-0.8 16.98-0.5 24.01 0.55-5.64-3.8-9.24-6.25-13.04-6.6-20.7-0.15-40.61 3.05-56.98 9.35-15.01 5.9-25.97 11.2-32.05 26.1z" fill="#D3461C"/>
  <defs>
    <linearGradient id="paint0_linear_401_605" x1="91.95" x2="91.95" y1="42.16" y2="120.1" gradientUnits="userSpaceOnUse">
      <stop stop-color="#1A1A1A" offset="0"/>
      <stop stop-color="#333" offset="1"/>
    </linearGradient>
  </defs>
</svg>