<svg xmlns="http://www.w3.org/2000/svg" width="256" height="256" fill="none" viewBox="0 0 256 256">
<!-- SVG created with Arrow, by QuiverAI (https://quiver.ai) -->
  <path d="m193.5 7.6h-131c-30.34 0-55.02 24.68-55.02 55.02v131c0 30.34 24.68 55.02 55.02 55.02h131c30.34 0 55.02-24.68 55.02-55.02v-131c0-30.34-24.68-55.02-55.02-55.02z" fill="url(#paint0_linear_1_201)"/>
  <path d="m30.69 49.96c-10.58 3.33-13.5 18.75-10.58 42.08 2.08 16.72 6.67 29.13 9.78 36l37.17-67.78c-11.04-5.17-28.34-12.98-36.37-10.3z" fill="#fff"/>
  <path d="m34.45 67.72c-4.58 5.03 0 27.34 5.56 44.56l21.32-30.01c-8.97-7.53-22.89-18.85-26.88-14.55z" fill="url(#paint1_linear_1_201)"/>
  <path d="m226.8 50.43c10.58 5.03 12.09 19.93 9.4 40.11-2.25 16.34-8.11 31.6-10.8 37.5l-40.49-50.82c11.04-6.21 32.12-31.53 41.89-26.79z" fill="#fff"/>
  <path d="m221.1 67.26c6.99 3.1 3.07 29.69-5.42 45.02l-24.71-28.01c7.97-8.13 18.9-21.96 30.13-17.01z" fill="url(#paint2_linear_1_201)"/>
  <path d="m19.61 170.9c0-20 18.83-62.82 41.72-77.72 16.58-10.58 23.36-17.05 66.79-17.05 40.69 0 59.86 10.81 78.69 30.87 13.35 14.27 30.03 47.83 30.03 63.9 0 18.83-16.58 32.87-32.65 39.34-17.98 7.61-39.77 11.92-76.57 11.92-32.51 0-54.82-3.36-72.4-9.9-14.9-6.01-35.61-19.06-35.61-41.36z" fill="url(#paint3_linear_1_201)"/>
  <path d="m50.31 110.2c1.9-6.32 8.75-12.06 13.78-12.06s9.72 0.55 8.66 4.03c-1.06 3.47-13.24 14.29-16.34 16.1-4.3 2.43-7.5-2.9-6.1-8.07z" fill="#FFB482"/>
  <path d="m40.91 128.6c0.5-3.81 2.92-5.56 5.53-5.31 3.38 0.33 3.57 3.39 2.87 6.12-0.93 3.71-3.52 4.46-5.38 4.06-2.42-0.55-3.38-2.45-3.02-4.87z" fill="#FFB482"/>
  <path d="m208.9 207.2c9.82-8.23 14.85-16.47 10.32-29.46 2.79 2.21 5.68 1.45 5.98-1.1 0.51-4.08-7.59-10.55-11.3-11.31 2.79 0 5.02-1.65 3.84-4.54-1.5-3.87-13.76-10.94-23.06-9.24-9.63 1.8-9.74 11.1-4.95 19 5.42 8.4 6.98 15.27 4.44 24.67-3.53 12.74-19.45 23.53-35.67 26.38 14.21-1.35 39.21-5.15 50.4-14.4z" fill="#fff"/>
  <path d="m48.15 208.8c-11.04-7.27-14.46-17.98-11.77-30.97-2.79 2.06-5.68 1.46-6.19-0.8-0.9-3.92 7.44-10.95 11.73-12.46-2.79-0.3-5.34-1.31-3.94-4.1 2.24-4.24 13.18-10.71 23-9.71 9.63 1.01 10.13 8.63 6.26 17.23-4.3 8.18-7.09 13.8-6.33 24.09 1.3 12.59 14.8 23.71 34.6 29.52-11.88-1.31-36.79-5.84-47.36-12.8z" fill="#fff"/>
  <path d="m128.1 140.2c-13.04-0.9-19.91 10.98-24.21 16.94-5.76 7.89-21.29 14.36-21.29 32.19 0 16.42 17.18 34.24 44.45 34.24 25.21 0 46.43-17.82 46.43-34.9 0-14.9-10.08-20.42-16.55-26.89-7.48-7.48-12.01-20.47-28.83-21.58z" fill="#fff"/>
  <path d="m154.9 181.7c-2.18-0.1-2.61 2.32-3.51 4.12-3.67 4.98-8.9 4.26-11.56 3.91-5.76-0.75-9.69-3.61-9.69-8.63v-1.3c7.18-1.66 12.05-9.69 12.05-12.41 0-5.61-5.03-8.27-14.66-8.27s-13.8 2.06-13.8 8.27c0 4.92 5.37 11.11 11.64 12.41v3.21c0 4.16-6.37 6.97-10.94 6.97-6.31 0-9.06-2.91-11.21-7.27-1.01-1.86-4.83-1.56-4.73 1.2 0.1 3.41 4.53 8.18 9.23 10.49 2.2 9 9.48 15.97 20.11 15.97 9.89-0.56 17.67-7.47 19.89-15.97 5.57-2.66 9.54-7.33 9.74-10.29 0.15-1.4-0.8-2.36-2.56-2.41z" fill="#12161C"/>
  <path d="m116.6 200.1c2.79 3.82 8.68 4.32 10.89 4.22 3.67-0.2 9.69-2.76 11.9-4.72-2.31-2.31-6.57-3.01-11.6-3.21-3.97-0.15-8.9 1.5-11.19 3.71z" fill="#E6552F"/>
  <path d="m73.7 150c2.61-7.07 8.22-9.82 13.49-9.62 7.98 0.3 11.75 5.17 13.41 9.65 0.9 2.76-2.36 5.41-4.22 3.2-2.66-3.15-4.36-6.01-9.69-5.81-4.07 0.15-6.27 2.51-7.78 4.92-1.8 2.65-6.36 1.09-5.21-2.34z" fill="#12161C"/>
  <path d="m154.4 150c2.61-7.07 8.22-9.82 13.49-9.62 7.98 0.3 11.75 5.17 13.41 9.65 0.9 2.76-2.36 5.41-4.22 3.2-2.66-3.15-4.37-6.01-9.69-5.81-4.07 0.15-6.27 2.51-7.78 4.92-1.8 2.65-6.37 1.09-5.21-2.34z" fill="#12161C"/>
  <path d="m81.02 115.1c2.71-4.52 9.89-3.77 12.1-3.11 7.07 1.3 10.99 7.26 10.69 10.98-0.5 5.91-3.92 7.42-7.28 5.31-3.77-2.3-5.62-4.21-13-5.81-3.92-0.96-4.47-4.27-2.51-7.37z" fill="#fff"/>
  <path d="m152.6 118.1c3.16-5.86 8.58-6.61 13.7-6.46 7.58 0.2 9.74 4.36 9.59 7.06-0.4 3.42-3.57 4.62-5.68 4.97-6.17 1.11-9.13 4.36-11.44 5.47-5.02 1.6-8.79-5.42-6.17-11.04z" fill="#fff"/>
  <path d="m75.41 7.6 1.5 47.39c-21.89 6.12-49.88 18.14-49.88 30.16 0 11.32 15.09 13.28 42.68 13.28 37 0 109-12.68 136.9-36.32 3.36-2.9 4.37-6.92 4.07-10.98-1.11-11.42-22.16-13.83-49.18-13.33-2.79 0.05-5.82 0.15-8.33 0.3l-8.54-30.5h-69.23z" fill="#12161C"/>
  <path d="m80.92 7.6-0.7 58.1c0 3.11 6.87 3.61 14.6 3.61 19.36 0 44.9-6.47 58.96-14.97 3.87-2.41 4.97-5.11 3.27-9.63l-1.51-3.92c12.54-0.7 40.68-0.55 49.71 6.32 3.47 2.76 3.47 7.13-0.8 11.4-19.65 19.24-78.44 35.92-129.3 35.92-16.98 0-44-1.51-44-9.69 0-9 25.72-20.92 47.6-27.39l-1.5-49.75h3.71z" fill="url(#paint4_linear_1_201)"/>
  <path d="m125.1 7.6 7.18 23.64c3.42 11.51 2.31 19.64-5.67 26.11-8.99 7.62-21.07 8.38-32.5 8.38-5.22 0-9.59-0.61-11.5-1.51l-1.6-56.62h44.09z" fill="url(#paint5_linear_1_201)"/>
  <path d="m86.09 15.72 2.01 32.9c0.15 2.51 2.81 3.06 3.81 2.21 1.21-1.01 2.31-1.91 2.11-4.52l-1.81-30.59c-0.15-3-6.32-3.6-6.12 0z" fill="#5A5B5D"/>
  <path d="m146.1 66.12c-1.1 0.55-1 2.66 1.01 2.66l6.18 0.35-5.57 2.76c-1.01 0.9 0 2.66 1.5 2.01l7.48-3.41 7.48 3.66c1.81 0.75 3.01-1.76 1.41-2.56l-5.47-2.56 8.83-4.11 12.55 0.5c2.11 0.1 2.76-2.41 0.65-2.81l-7.23-1.6c5.02-2.31 9.44-5.32 12.71-9.58 1.31-1.91-1.3-2.91-2.51-1.51-4.17 4.67-8.19 7.98-13.91 9.89l-6.17-2.01c-2.11-0.65-3.22 2.11-1.31 2.61l4.26 1.3-10.83 5.42-4.22-1.91c-2.11-0.8-5.02-0.1-6.84 0.9z" fill="#12161C"/>
  <defs>
    <linearGradient id="paint0_linear_1_201" x1="128" x2="128" y1="7.6" y2="248.6" gradientUnits="userSpaceOnUse">
      <stop stop-color="#FF7822" offset="0"/>
      <stop stop-color="#E64610" offset="1"/>
    </linearGradient>
    <linearGradient id="paint1_linear_1_201" x1="46.27" x2="46.27" y1="66.79" y2="112.3" gradientUnits="userSpaceOnUse">
      <stop stop-color="#993519" offset="0"/>
      <stop stop-color="#872912" offset="1"/>
    </linearGradient>
    <linearGradient id="paint2_linear_1_201" x1="207.9" x2="207.9" y1="66.21" y2="112.3" gradientUnits="userSpaceOnUse">
      <stop stop-color="#993519" offset="0"/>
      <stop stop-color="#872912" offset="1"/>
    </linearGradient>
    <linearGradient id="paint3_linear_1_201" x1="128.2" x2="128.2" y1="76.14" y2="222.2" gradientUnits="userSpaceOnUse">
      <stop stop-color="#FF7822" offset="0"/>
      <stop stop-color="#E64610" offset="1"/>
    </linearGradient>
    <linearGradient id="paint4_linear_1_201" x1="119.9" x2="119.9" y1="39.78" y2="94.43" gradientUnits="userSpaceOnUse">
      <stop stop-color="#3A3B40" offset="0"/>
      <stop stop-color="#2A292F" offset="1"/>
    </linearGradient>
    <linearGradient id="paint5_linear_1_201" x1="107.9" x2="107.9" y1="7.6" y2="65.73" gradientUnits="userSpaceOnUse">
      <stop stop-color="#28292D" offset="0"/>
      <stop stop-color="#333438" offset="1"/>
    </linearGradient>
  </defs>
</svg>